<svg class="rich-terminal" viewBox="0 0 1482 782.0" xmlns="http://www.w3.org/2000/svg">
    <!-- Generated with Rich https://www.textualize.io -->
    <style>

    @font-face {
        font-family: "Fira Code";
        src: local("FiraCode-Regular"),
                url("https://cdnjs.cloudflare.com/ajax/libs/firacode/6.2.0/woff2/FiraCode-Regular.woff2") format("woff2"),
                url("https://cdnjs.cloudflare.com/ajax/libs/firacode/6.2.0/woff/FiraCode-Regular.woff") format("woff");
        font-style: normal;
        font-weight: 400;
    }
    @font-face {
        font-family: "Fira Code";
        src: local("FiraCode-Bold"),
                url("https://cdnjs.cloudflare.com/ajax/libs/firacode/6.2.0/woff2/FiraCode-Bold.woff2") format("woff2"),
                url("https://cdnjs.cloudflare.com/ajax/libs/firacode/6.2.0/woff/FiraCode-Bold.woff") format("woff");
        font-style: bold;
        font-weight: 700;
    }

    .terminal-599266694-matrix {
        font-family: Fira Code, monospace;
        font-size: 20px;
        line-height: 24.4px;
        font-variant-east-asian: full-width;
    }

    .terminal-599266694-title {
        font-size: 18px;
        font-weight: bold;
        font-family: arial;
    }

    .terminal-599266694-r1 { fill: #121212 }
.terminal-599266694-r2 { fill: #646464 }
.terminal-599266694-r3 { fill: #e0e0e0 }
.terminal-599266694-r4 { fill: #c5c8c6 }
.terminal-599266694-r5 { fill: #e0e0e0;font-weight: bold }
.terminal-599266694-r6 { fill: #1e1e1e }
.terminal-599266694-r7 { fill: #0178d4 }
.terminal-599266694-r8 { fill: #797979 }
.terminal-599266694-r9 { fill: #191919 }
.terminal-599266694-r10 { fill: #737373 }
.terminal-599266694-r11 { fill: #6db2ff }
.terminal-599266694-r12 { fill: #2d2d2d }
.terminal-599266694-r13 { fill: #ddedf9;font-weight: bold }
.terminal-599266694-r14 { fill: #004295 }
.terminal-599266694-r15 { fill: #0d0d0d }
.terminal-599266694-r16 { fill: #4a4a4a }
.terminal-599266694-r17 { fill: #704d1c;font-weight: bold }
.terminal-599266694-r18 { fill: #282b2e }
    </style>

    <defs>
    <clipPath id="terminal-599266694-clip-terminal">
      <rect x="0" y="0" width="1463.0" height="731.0" />
    </clipPath>
    <clipPath id="terminal-599266694-line-0">
    <rect x="0" y="1.5" width="1464" height="24.65"/>
            </clipPath>
<clipPath id="terminal-599266694-line-1">
    <rect x="0" y="25.9" width="1464" height="24.65"/>
            </clipPath>
<clipPath id="terminal-599266694-line-2">
    <rect x="0" y="50.3" width="1464" height="24.65"/>
            </clipPath>
<clipPath id="terminal-599266694-line-3">
    <rect x="0" y="74.7" width="1464" height="24.65"/>
            </clipPath>
<clipPath id="terminal-599266694-line-4">
    <rect x="0" y="99.1" width="1464" height="24.65"/>
            </clipPath>
<clipPath id="terminal-599266694-line-5">
    <rect x="0" y="123.5" width="1464" height="24.65"/>
            </clipPath>
<clipPath id="terminal-599266694-line-6">
    <rect x="0" y="147.9" width="1464" height="24.65"/>
            </clipPath>
<clipPath id="terminal-599266694-line-7">
    <rect x="0" y="172.3" width="1464" height="24.65"/>
            </clipPath>
<clipPath id="terminal-599266694-line-8">
    <rect x="0" y="196.7" width="1464" height="24.65"/>
            </clipPath>
<clipPath id="terminal-599266694-line-9">
    <rect x="0" y="221.1" width="1464" height="24.65"/>
            </clipPath>
<clipPath id="terminal-599266694-line-10">
    <rect x="0" y="245.5" width="1464" height="24.65"/>
            </clipPath>
<clipPath id="terminal-599266694-line-11">
    <rect x="0" y="269.9" width="1464" height="24.65"/>
            </clipPath>
<clipPath id="terminal-599266694-line-12">
    <rect x="0" y="294.3" width="1464" height="24.65"/>
            </clipPath>
<clipPath id="terminal-599266694-line-13">
    <rect x="0" y="318.7" width="1464" height="24.65"/>
            </clipPath>
<clipPath id="terminal-599266694-line-14">
    <rect x="0" y="343.1" width="1464" height="24.65"/>
            </clipPath>
<clipPath id="terminal-599266694-line-15">
    <rect x="0" y="367.5" width="1464" height="24.65"/>
            </clipPath>
<clipPath id="terminal-599266694-line-16">
    <rect x="0" y="391.9" width="1464" height="24.65"/>
            </clipPath>
<clipPath id="terminal-599266694-line-17">
    <rect x="0" y="416.3" width="1464" height="24.65"/>
            </clipPath>
<clipPath id="terminal-599266694-line-18">
    <rect x="0" y="440.7" width="1464" height="24.65"/>
            </clipPath>
<clipPath id="terminal-599266694-line-19">
    <rect x="0" y="465.1" width="1464" height="24.65"/>
            </clipPath>
<clipPath id="terminal-599266694-line-20">
    <rect x="0" y="489.5" width="1464" height="24.65"/>
            </clipPath>
<clipPath id="terminal-599266694-line-21">
    <rect x="0" y="513.9" width="1464" height="24.65"/>
            </clipPath>
<clipPath id="terminal-599266694-line-22">
    <rect x="0" y="538.3" width="1464" height="24.65"/>
            </clipPath>
<clipPath id="terminal-599266694-line-23">
    <rect x="0" y="562.7" width="1464" height="24.65"/>
            </clipPath>
<clipPath id="terminal-599266694-line-24">
    <rect x="0" y="587.1" width="1464" height="24.65"/>
            </clipPath>
<clipPath id="terminal-599266694-line-25">
    <rect x="0" y="611.5" width="1464" height="24.65"/>
            </clipPath>
<clipPath id="terminal-599266694-line-26">
    <rect x="0" y="635.9" width="1464" height="24.65"/>
            </clipPath>
<clipPath id="terminal-599266694-line-27">
    <rect x="0" y="660.3" width="1464" height="24.65"/>
            </clipPath>
<clipPath id="terminal-599266694-line-28">
    <rect x="0" y="684.7" width="1464" height="24.65"/>
            </clipPath>
    </defs>

    <rect fill="#292929" stroke="rgba(255,255,255,0.35)" stroke-width="1" x="1" y="1" width="1480" height="780" rx="8"/><text class="terminal-599266694-title" fill="#c5c8c6" text-anchor="middle" x="740" y="27">DownloadApp</text>
            <g transform="translate(26,22)">
            <circle cx="0" cy="0" r="7" fill="#ff5f57"/>
            <circle cx="22" cy="0" r="7" fill="#febc2e"/>
            <circle cx="44" cy="0" r="7" fill="#28c840"/>
            </g>
        
    <g transform="translate(9, 41)" clip-path="url(#terminal-599266694-clip-terminal)">
    <rect fill="#1e1e1e" x="0" y="1.5" width="12.2" height="24.65" shape-rendering="crispEdges"/><rect fill="#1e1e1e" x="12.2" y="1.5" width="707.6" height="24.65" shape-rendering="crispEdges"/><rect fill="#1e1e1e" x="719.8" y="1.5" width="12.2" height="24.65" shape-rendering="crispEdges"/><rect fill="#191d21" x="732" y="1.5" width="48.8" height="24.65" shape-rendering="crispEdges"/><rect fill="#191d21" x="780.8" y="1.5" width="561.2" height="24.65" shape-rendering="crispEdges"/><rect fill="#191d21" x="1342" y="1.5" width="12.2" height="24.65" shape-rendering="crispEdges"/><rect fill="#191d21" x="1354.2" y="1.5" width="97.6" height="24.65" shape-rendering="crispEdges"/><rect fill="#191d21" x="1451.8" y="1.5" width="12.2" height="24.65" shape-rendering="crispEdges"/><rect fill="#1e1e1e" x="0" y="25.9" width="12.2" height="24.65" shape-rendering="crispEdges"/><rect fill="#1e1e1e" x="12.2" y="25.9" width="707.6" height="24.65" shape-rendering="crispEdges"/><rect fill="#1e1e1e" x="719.8" y="25.9" width="12.2" height="24.65" shape-rendering="crispEdges"/><rect fill="#1a1a1a" x="732" y="25.9" width="732" height="24.65" shape-rendering="crispEdges"/><rect fill="#1e1e1e" x="0" y="50.3" width="12.2" height="24.65" shape-rendering="crispEdges"/><rect fill="#1e1e1e" x="12.2" y="50.3" width="24.4" height="24.65" shape-rendering="crispEdges"/><rect fill="#1e1e1e" x="36.6" y="50.3" width="146.4" height="24.65" shape-rendering="crispEdges"/><rect fill="#1e1e1e" x="183" y="50.3" width="512.4" height="24.65" shape-rendering="crispEdges"/><rect fill="#1e1e1e" x="695.4" y="50.3" width="24.4" height="24.65" shape-rendering="crispEdges"/><rect fill="#1e1e1e" x="719.8" y="50.3" width="12.2" height="24.65" shape-rendering="crispEdges"/><rect fill="#1a1a1a" x="732" y="50.3" width="732" height="24.65" shape-rendering="crispEdges"/><rect fill="#1e1e1e" x="0" y="74.7" width="12.2" height="24.65" shape-rendering="crispEdges"/><rect fill="#1e1e1e" x="12.2" y="74.7" width="24.4" height="24.65" shape-rendering="crispEdges"/><rect fill="#1e1e1e" x="36.6" y="74.7" width="658.8" height="24.65" shape-rendering="crispEdges"/><rect fill="#1e1e1e" x="695.4" y="74.7" width="24.4" height="24.65" shape-rendering="crispEdges"/><rect fill="#1e1e1e" x="719.8" y="74.7" width="12.2" height="24.65" shape-rendering="crispEdges"/><rect fill="#1a1a1a" x="732" y="74.7" width="732" height="24.65" shape-rendering="crispEdges"/><rect fill="#1e1e1e" x="0" y="99.1" width="12.2" height="24.65" shape-rendering="crispEdges"/><rect fill="#1e1e1e" x="12.2" y="99.1" width="24.4" height="24.65" shape-rendering="crispEdges"/><rect fill="#0178d4" x="36.6" y="99.1" width="12.2" height="24.65" shape-rendering="crispEdges"/><rect fill="#272727" x="48.8" y="99.1" width="634.4" height="24.65" shape-rendering="crispEdges"/><rect fill="#1e1e1e" x="683.2" y="99.1" width="12.2" height="24.65" shape-rendering="crispEdges"/><rect fill="#1e1e1e" x="695.4" y="99.1" width="24.4" height="24.65" shape-rendering="crispEdges"/><rect fill="#1e1e1e" x="719.8" y="99.1" width="12.2" height="24.65" shape-rendering="crispEdges"/><rect fill="#1a1a1a" x="732" y="99.1" width="732" height="24.65" shape-rendering="crispEdges"/><rect fill="#1e1e1e" x="0" y="123.5" width="12.2" height="24.65" shape-rendering="crispEdges"/><rect fill="#1e1e1e" x="12.2" y="123.5" width="24.4" height="24.65" shape-rendering="crispEdges"/><rect fill="#0178d4" x="36.6" y="123.5" width="12.2" height="24.65" shape-rendering="crispEdges"/><rect fill="#272727" x="48.8" y="123.5" width="24.4" height="24.65" shape-rendering="crispEdges"/><rect fill="#e0e0e0" x="73.2" y="123.5" width="12.2" height="24.65" shape-rendering="crispEdges"/><rect fill="#272727" x="85.4" y="123.5" width="24.4" height="24.65" shape-rendering="crispEdges"/><rect fill="#272727" x="109.8" y="123.5" width="549" height="24.65" shape-rendering="crispEdges"/><rect fill="#272727" x="658.8" y="123.5" width="24.4" height="24.65" shape-rendering="crispEdges"/><rect fill="#1e1e1e" x="683.2" y="123.5" width="12.2" height="24.65" shape-rendering="crispEdges"/><rect fill="#1e1e1e" x="695.4" y="123.5" width="24.4" height="24.65" shape-rendering="crispEdges"/><rect fill="#1e1e1e" x="719.8" y="123.5" width="12.2" height="24.65" shape-rendering="crispEdges"/><rect fill="#1a1a1a" x="732" y="123.5" width="732" height="24.65" shape-rendering="crispEdges"/><rect fill="#1e1e1e" x="0" y="147.9" width="12.2" height="24.65" shape-rendering="crispEdges"/><rect fill="#1e1e1e" x="12.2" y="147.9" width="24.4" height="24.65" shape-rendering="crispEdges"/><rect fill="#0178d4" x="36.6" y="147.9" width="12.2" height="24.65" shape-rendering="crispEdges"/><rect fill="#272727" x="48.8" y="147.9" width="634.4" height="24.65" shape-rendering="crispEdges"/><rect fill="#1e1e1e" x="683.2" y="147.9" width="12.2" height="24.65" shape-rendering="crispEdges"/><rect fill="#1e1e1e" x="695.4" y="147.9" width="24.4" height="24.65" shape-rendering="crispEdges"/><rect fill="#1e1e1e" x="719.8" y="147.9" width="12.2" height="24.65" shape-rendering="crispEdges"/><rect fill="#1a1a1a" x="732" y="147.9" width="732" height="24.65" shape-rendering="crispEdges"/><rect fill="#1e1e1e" x="0" y="172.3" width="12.2" height="24.65" shape-rendering="crispEdges"/><rect fill="#1e1e1e" x="12.2" y="172.3" width="24.4" height="24.65" shape-rendering="crispEdges"/><rect fill="#191919" x="36.6" y="172.3" width="12.2" height="24.65" shape-rendering="crispEdges"/><rect fill="#1e1e1e" x="48.8" y="172.3" width="634.4" height="24.65" shape-rendering="crispEdges"/><rect fill="#1e1e1e" x="683.2" y="172.3" width="12.2" height="24.65" shape-rendering="crispEdges"/><rect fill="#1e1e1e" x="695.4" y="172.3" width="24.4" height="24.65" shape-rendering="crispEdges"/><rect fill="#1e1e1e" x="719.8" y="172.3" width="12.2" height="24.65" shape-rendering="crispEdges"/><rect fill="#1a1a1a" x="732" y="172.3" width="732" height="24.65" shape-rendering="crispEdges"/><rect fill="#1e1e1e" x="0" y="196.7" width="12.2" height="24.65" shape-rendering="crispEdges"/><rect fill="#1e1e1e" x="12.2" y="196.7" width="24.4" height="24.65" shape-rendering="crispEdges"/><rect fill="#191919" x="36.6" y="196.7" width="12.2" height="24.65" shape-rendering="crispEdges"/><rect fill="#1e1e1e" x="48.8" y="196.7" width="24.4" height="24.65" shape-rendering="crispEdges"/><rect fill="#1e1e1e" x="73.2" y="196.7" width="268.4" height="24.65" shape-rendering="crispEdges"/><rect fill="#1e1e1e" x="341.6" y="196.7" width="317.2" height="24.65" shape-rendering="crispEdges"/><rect fill="#1e1e1e" x="658.8" y="196.7" width="24.4" height="24.65" shape-rendering="crispEdges"/><rect fill="#1e1e1e" x="683.2" y="196.7" width="12.2" height="24.65" shape-rendering="crispEdges"/><rect fill="#1e1e1e" x="695.4" y="196.7" width="24.4" height="24.65" shape-rendering="crispEdges"/><rect fill="#1e1e1e" x="719.8" y="196.7" width="12.2" height="24.65" shape-rendering="crispEdges"/><rect fill="#1a1a1a" x="732" y="196.7" width="732" height="24.65" shape-rendering="crispEdges"/><rect fill="#1e1e1e" x="0" y="221.1" width="12.2" height="24.65" shape-rendering="crispEdges"/><rect fill="#1e1e1e" x="12.2" y="221.1" width="24.4" height="24.65" shape-rendering="crispEdges"/><rect fill="#191919" x="36.6" y="221.1" width="12.2" height="24.65" shape-rendering="crispEdges"/><rect fill="#1e1e1e" x="48.8" y="221.1" width="634.4" height="24.65" shape-rendering="crispEdges"/><rect fill="#1e1e1e" x="683.2" y="221.1" width="12.2" height="24.65" shape-rendering="crispEdges"/><rect fill="#1e1e1e" x="695.4" y="221.1" width="24.4" height="24.65" shape-rendering="crispEdges"/><rect fill="#1e1e1e" x="719.8" y="221.1" width="12.2" height="24.65" shape-rendering="crispEdges"/><rect fill="#1a1a1a" x="732" y="221.1" width="732" height="24.65" shape-rendering="crispEdges"/><rect fill="#1e1e1e" x="0" y="245.5" width="12.2" height="24.65" shape-rendering="crispEdges"/><rect fill="#1e1e1e" x="12.2" y="245.5" width="24.4" height="24.65" shape-rendering="crispEdges"/><rect fill="#1e1e1e" x="36.6" y="245.5" width="658.8" height="24.65" shape-rendering="crispEdges"/><rect fill="#1e1e1e" x="695.4" y="245.5" width="24.4" height="24.65" shape-rendering="crispEdges"/><rect fill="#1e1e1e" x="719.8" y="245.5" width="12.2" height="24.65" shape-rendering="crispEdges"/><rect fill="#1a1a1a" x="732" y="245.5" width="732" height="24.65" shape-rendering="crispEdges"/><rect fill="#1e1e1e" x="0" y="269.9" width="12.2" height="24.65" shape-rendering="crispEdges"/><rect fill="#1e1e1e" x="12.2" y="269.9" width="24.4" height="24.65" shape-rendering="crispEdges"/><rect fill="#1e1e1e" x="36.6" y="269.9" width="122" height="24.65" shape-rendering="crispEdges"/><rect fill="#0178d4" x="158.6" y="269.9" width="195.2" height="24.65" shape-rendering="crispEdges"/><rect fill="#1e1e1e" x="353.8" y="269.9" width="12.2" height="24.65" shape-rendering="crispEdges"/><rect fill="#1e1e1e" x="366" y="269.9" width="195.2" height="24.65" shape-rendering="crispEdges"/><rect fill="#1e1e1e" x="561.2" y="269.9" width="134.2" height="24.65" shape-rendering="crispEdges"/><rect fill="#1e1e1e" x="695.4" y="269.9" width="24.4" height="24.65" shape-rendering="crispEdges"/><rect fill="#1e1e1e" x="719.8" y="269.9" width="12.2" height="24.65" shape-rendering="crispEdges"/><rect fill="#1a1a1a" x="732" y="269.9" width="732" height="24.65" shape-rendering="crispEdges"/><rect fill="#1e1e1e" x="0" y="294.3" width="12.2" height="24.65" shape-rendering="crispEdges"/><rect fill="#1e1e1e" x="12.2" y="294.3" width="24.4" height="24.65" shape-rendering="crispEdges"/><rect fill="#1e1e1e" x="36.6" y="294.3" width="122" height="24.65" shape-rendering="crispEdges"/><rect fill="#0178d4" x="158.6" y="294.3" width="61" height="24.65" shape-rendering="crispEdges"/><rect fill="#0178d4" x="219.6" y="294.3" width="61" height="24.65" shape-rendering="crispEdges"/><rect fill="#0178d4" x="280.6" y="294.3" width="73.2" height="24.65" shape-rendering="crispEdges"/><rect fill="#1e1e1e" x="353.8" y="294.3" width="12.2" height="24.65" shape-rendering="crispEdges"/><rect fill="#1e1e1e" x="366" y="294.3" width="48.8" height="24.65" shape-rendering="crispEdges"/><rect fill="#1e1e1e" x="414.8" y="294.3" width="97.6" height="24.65" shape-rendering="crispEdges"/><rect fill="#1e1e1e" x="512.4" y="294.3" width="48.8" height="24.65" shape-rendering="crispEdges"/><rect fill="#1e1e1e" x="561.2" y="294.3" width="134.2" height="24.65" shape-rendering="crispEdges"/><rect fill="#1e1e1e" x="695.4" y="294.3" width="24.4" height="24.65" shape-rendering="crispEdges"/><rect fill="#1e1e1e" x="719.8" y="294.3" width="12.2" height="24.65" shape-rendering="crispEdges"/><rect fill="#1a1a1a" x="732" y="294.3" width="732" height="24.65" shape-rendering="crispEdges"/><rect fill="#1e1e1e" x="0" y="318.7" width="12.2" height="24.65" shape-rendering="crispEdges"/><rect fill="#1e1e1e" x="12.2" y="318.7" width="24.4" height="24.65" shape-rendering="crispEdges"/><rect fill="#1e1e1e" x="36.6" y="318.7" width="122" height="24.65" shape-rendering="crispEdges"/><rect fill="#0178d4" x="158.6" y="318.7" width="195.2" height="24.65" shape-rendering="crispEdges"/><rect fill="#1e1e1e" x="353.8" y="318.7" width="12.2" height="24.65" shape-rendering="crispEdges"/><rect fill="#1e1e1e" x="366" y="318.7" width="195.2" height="24.65" shape-rendering="crispEdges"/><rect fill="#1e1e1e" x="561.2" y="318.7" width="134.2" height="24.65" shape-rendering="crispEdges"/><rect fill="#1e1e1e" x="695.4" y="318.7" width="24.4" height="24.65" shape-rendering="crispEdges"/><rect fill="#1e1e1e" x="719.8" y="318.7" width="12.2" height="24.65" shape-rendering="crispEdges"/><rect fill="#1a1a1a" x="732" y="318.7" width="732" height="24.65" shape-rendering="crispEdges"/><rect fill="#1e1e1e" x="0" y="343.1" width="12.2" height="24.65" shape-rendering="crispEdges"/><rect fill="#1e1e1e" x="12.2" y="343.1" width="707.6" height="24.65" shape-rendering="crispEdges"/><rect fill="#1e1e1e" x="719.8" y="343.1" width="12.2" height="24.65" shape-rendering="crispEdges"/><rect fill="#1a1a1a" x="732" y="343.1" width="732" height="24.65" shape-rendering="crispEdges"/><rect fill="#1e1e1e" x="0" y="367.5" width="12.2" height="24.65" shape-rendering="crispEdges"/><rect fill="#1e1e1e" x="12.2" y="367.5" width="707.6" height="24.65" shape-rendering="crispEdges"/><rect fill="#1e1e1e" x="719.8" y="367.5" width="12.2" height="24.65" shape-rendering="crispEdges"/><rect fill="#1a1a1a" x="732" y="367.5" width="732" height="24.65" shape-rendering="crispEdges"/><rect fill="#1a1a1a" x="0" y="391.9" width="1464" height="24.65" shape-rendering="crispEdges"/><rect fill="#1a1a1a" x="0" y="416.3" width="1464" height="24.65" shape-rendering="crispEdges"/><rect fill="#1a1a1a" x="0" y="440.7" width="1464" height="24.65" shape-rendering="crispEdges"/><rect fill="#1a1a1a" x="0" y="465.1" width="1464" height="24.65" shape-rendering="crispEdges"/><rect fill="#1a1a1a" x="0" y="489.5" width="1464" height="24.65" shape-rendering="crispEdges"/><rect fill="#1a1a1a" x="0" y="513.9" width="1464" height="24.65" shape-rendering="crispEdges"/><rect fill="#1a1a1a" x="0" y="538.3" width="1464" height="24.65" shape-rendering="crispEdges"/><rect fill="#1a1a1a" x="0" y="562.7" width="1464" height="24.65" shape-rendering="crispEdges"/><rect fill="#1a1a1a" x="0" y="587.1" width="1464" height="24.65" shape-rendering="crispEdges"/><rect fill="#1a1a1a" x="0" y="611.5" width="1464" height="24.65" shape-rendering="crispEdges"/><rect fill="#1a1a1a" x="0" y="635.9" width="1464" height="24.65" shape-rendering="crispEdges"/><rect fill="#1a1a1a" x="0" y="660.3" width="1464" height="24.65" shape-rendering="crispEdges"/><rect fill="#121212" x="0" y="684.7" width="24.4" height="24.65" shape-rendering="crispEdges"/><rect fill="#121212" x="24.4" y="684.7" width="573.4" height="24.65" shape-rendering="crispEdges"/><rect fill="#121212" x="597.8" y="684.7" width="841.8" height="24.65" shape-rendering="crispEdges"/><rect fill="#121212" x="1439.6" y="684.7" width="24.4" height="24.65" shape-rendering="crispEdges"/><rect fill="#191d21" x="0" y="709.1" width="36.6" height="24.65" shape-rendering="crispEdges"/><rect fill="#191d21" x="36.6" y="709.1" width="48.8" height="24.65" shape-rendering="crispEdges"/><rect fill="#191d21" x="85.4" y="709.1" width="36.6" height="24.65" shape-rendering="crispEdges"/><rect fill="#191d21" x="122" y="709.1" width="158.6" height="24.65" shape-rendering="crispEdges"/><rect fill="#191d21" x="280.6" y="709.1" width="36.6" height="24.65" shape-rendering="crispEdges"/><rect fill="#191d21" x="317.2" y="709.1" width="61" height="24.65" shape-rendering="crispEdges"/><rect fill="#191d21" x="378.2" y="709.1" width="36.6" height="24.65" shape-rendering="crispEdges"/><rect fill="#191d21" x="414.8" y="709.1" width="85.4" height="24.65" shape-rendering="crispEdges"/><rect fill="#191d21" x="500.2" y="709.1" width="36.6" height="24.65" shape-rendering="crispEdges"/><rect fill="#191d21" x="536.8" y="709.1" width="61" height="24.65" shape-rendering="crispEdges"/><rect fill="#191d21" x="597.8" y="709.1" width="719.8" height="24.65" shape-rendering="crispEdges"/><rect fill="#191d21" x="1317.6" y="709.1" width="12.2" height="24.65" shape-rendering="crispEdges"/><rect fill="#191d21" x="1329.8" y="709.1" width="24.4" height="24.65" shape-rendering="crispEdges"/><rect fill="#191d21" x="1354.2" y="709.1" width="97.6" height="24.65" shape-rendering="crispEdges"/><rect fill="#191d21" x="1451.8" y="709.1" width="12.2" height="24.65" shape-rendering="crispEdges"/>
    <g class="terminal-599266694-matrix">
    <text class="terminal-599266694-r1" x="0" y="20" textLength="12.2" clip-path="url(#terminal-599266694-line-0)">█</text><text class="terminal-599266694-r1" x="12.2" y="20" textLength="707.6" clip-path="url(#terminal-599266694-line-0)">▀▀▀▀▀▀▀▀▀▀▀▀▀▀▀▀▀▀▀▀▀▀▀▀▀▀▀▀▀▀▀▀▀▀▀▀▀▀▀▀▀▀▀▀▀▀▀▀▀▀▀▀▀▀▀▀▀▀</text><text class="terminal-599266694-r1" x="719.8" y="20" textLength="12.2" clip-path="url(#terminal-599266694-line-0)">█</text><text class="terminal-599266694-r2" x="732" y="20" textLength="48.8" clip-path="url(#terminal-599266694-line-0)">dApp</text><text class="terminal-599266694-r4" x="1464" y="20" textLength="12.2" clip-path="url(#terminal-599266694-line-0)">
</text><text class="terminal-599266694-r1" x="0" y="44.4" textLength="12.2" clip-path="url(#terminal-599266694-line-1)">█</text><text class="terminal-599266694-r1" x="719.8" y="44.4" textLength="12.2" clip-path="url(#terminal-599266694-line-1)">█</text><text class="terminal-599266694-r4" x="1464" y="44.4" textLength="12.2" clip-path="url(#terminal-599266694-line-1)">
</text><text class="terminal-599266694-r1" x="0" y="68.8" textLength="12.2" clip-path="url(#terminal-599266694-line-2)">█</text><text class="terminal-599266694-r5" x="36.6" y="68.8" textLength="146.4" clip-path="url(#terminal-599266694-line-2)">Add&#160;Download</text><text class="terminal-599266694-r1" x="719.8" y="68.8" textLength="12.2" clip-path="url(#terminal-599266694-line-2)">█</text><text class="terminal-599266694-r4" x="1464" y="68.8" textLength="12.2" clip-path="url(#terminal-599266694-line-2)">
</text><text class="terminal-599266694-r1" x="0" y="93.2" textLength="12.2" clip-path="url(#terminal-599266694-line-3)">█</text><text class="terminal-599266694-r1" x="719.8" y="93.2" textLength="12.2" clip-path="url(#terminal-599266694-line-3)">█</text><text class="terminal-599266694-r4" x="1464" y="93.2" textLength="12.2" clip-path="url(#terminal-599266694-line-3)">
</text><text class="terminal-599266694-r1" x="0" y="117.6" textLength="12.2" clip-path="url(#terminal-599266694-line-4)">█</text><text class="terminal-599266694-r6" x="36.6" y="117.6" textLength="12.2" clip-path="url(#terminal-599266694-line-4)">▊</text><text class="terminal-599266694-r7" x="48.8" y="117.6" textLength="634.4" clip-path="url(#terminal-599266694-line-4)">▔▔▔▔▔▔▔▔▔▔▔▔▔▔▔▔▔▔▔▔▔▔▔▔▔▔▔▔▔▔▔▔▔▔▔▔▔▔▔▔▔▔▔▔▔▔▔▔▔▔▔▔</text><text class="terminal-599266694-r7" x="683.2" y="117.6" textLength="12.2" clip-path="url(#terminal-599266694-line-4)">▎</text><text class="terminal-599266694-r1" x="719.8" y="117.6" textLength="12.2" clip-path="url(#terminal-599266694-line-4)">█</text><text class="terminal-599266694-r4" x="1464" y="117.6" textLength="12.2" clip-path="url(#terminal-599266694-line-4)">
</text><text class="terminal-599266694-r1" x="0" y="142" textLength="12.2" clip-path="url(#terminal-599266694-line-5)">█</text><text class="terminal-599266694-r6" x="36.6" y="142" textLength="12.2" clip-path="url(#terminal-599266694-line-5)">▊</text><text class="terminal-599266694-r1" x="73.2" y="142" textLength="12.2" clip-path="url(#terminal-599266694-line-5)">U</text><text class="terminal-599266694-r8" x="85.4" y="142" textLength="24.4" clip-path="url(#terminal-599266694-line-5)">RL</text><text class="terminal-599266694-r7" x="683.2" y="142" textLength="12.2" clip-path="url(#terminal-599266694-line-5)">▎</text><text class="terminal-599266694-r1" x="719.8" y="142" textLength="12.2" clip-path="url(#terminal-599266694-line-5)">█</text><text class="terminal-599266694-r4" x="1464" y="142" textLength="12.2" clip-path="url(#terminal-599266694-line-5)">
</text><text class="terminal-599266694-r1" x="0" y="166.4" textLength="12.2" clip-path="url(#terminal-599266694-line-6)">█</text><text class="terminal-599266694-r6" x="36.6" y="166.4" textLength="12.2" clip-path="url(#terminal-599266694-line-6)">▊</text><text class="terminal-599266694-r7" x="48.8" y="166.4" textLength="634.4" clip-path="url(#terminal-599266694-line-6)">▁▁▁▁▁▁▁▁▁▁▁▁▁▁▁▁▁▁▁▁▁▁▁▁▁▁▁▁▁▁▁▁▁▁▁▁▁▁▁▁▁▁▁▁▁▁▁▁▁▁▁▁</text><text class="terminal-599266694-r7" x="683.2" y="166.4" textLength="12.2" clip-path="url(#terminal-599266694-line-6)">▎</text><text class="terminal-599266694-r1" x="719.8" y="166.4" textLength="12.2" clip-path="url(#terminal-599266694-line-6)">█</text><text class="terminal-599266694-r4" x="1464" y="166.4" textLength="12.2" clip-path="url(#terminal-599266694-line-6)">
</text><text class="terminal-599266694-r1" x="0" y="190.8" textLength="12.2" clip-path="url(#terminal-599266694-line-7)">█</text><text class="terminal-599266694-r6" x="36.6" y="190.8" textLength="12.2" clip-path="url(#terminal-599266694-line-7)">▊</text><text class="terminal-599266694-r9" x="48.8" y="190.8" textLength="634.4" clip-path="url(#terminal-599266694-line-7)">▔▔▔▔▔▔▔▔▔▔▔▔▔▔▔▔▔▔▔▔▔▔▔▔▔▔▔▔▔▔▔▔▔▔▔▔▔▔▔▔▔▔▔▔▔▔▔▔▔▔▔▔</text><text class="terminal-599266694-r9" x="683.2" y="190.8" textLength="12.2" clip-path="url(#terminal-599266694-line-7)">▎</text><text class="terminal-599266694-r1" x="719.8" y="190.8" textLength="12.2" clip-path="url(#terminal-599266694-line-7)">█</text><text class="terminal-599266694-r4" x="1464" y="190.8" textLength="12.2" clip-path="url(#terminal-599266694-line-7)">
</text><text class="terminal-599266694-r1" x="0" y="215.2" textLength="12.2" clip-path="url(#terminal-599266694-line-8)">█</text><text class="terminal-599266694-r6" x="36.6" y="215.2" textLength="12.2" clip-path="url(#terminal-599266694-line-8)">▊</text><text class="terminal-599266694-r10" x="73.2" y="215.2" textLength="268.4" clip-path="url(#terminal-599266694-line-8)">Output&#160;path&#160;(optional)</text><text class="terminal-599266694-r9" x="683.2" y="215.2" textLength="12.2" clip-path="url(#terminal-599266694-line-8)">▎</text><text class="terminal-599266694-r1" x="719.8" y="215.2" textLength="12.2" clip-path="url(#terminal-599266694-line-8)">█</text><text class="terminal-599266694-r4" x="1464" y="215.2" textLength="12.2" clip-path="url(#terminal-599266694-line-8)">
</text><text class="terminal-599266694-r1" x="0" y="239.6" textLength="12.2" clip-path="url(#terminal-599266694-line-9)">█</text><text class="terminal-599266694-r6" x="36.6" y="239.6" textLength="12.2" clip-path="url(#terminal-599266694-line-9)">▊</text><text class="terminal-599266694-r9" x="48.8" y="239.6" textLength="634.4" clip-path="url(#terminal-599266694-line-9)">▁▁▁▁▁▁▁▁▁▁▁▁▁▁▁▁▁▁▁▁▁▁▁▁▁▁▁▁▁▁▁▁▁▁▁▁▁▁▁▁▁▁▁▁▁▁▁▁▁▁▁▁</text><text class="terminal-599266694-r9" x="683.2" y="239.6" textLength="12.2" clip-path="url(#terminal-599266694-line-9)">▎</text><text class="terminal-599266694-r1" x="719.8" y="239.6" textLength="12.2" clip-path="url(#terminal-599266694-line-9)">█</text><text class="terminal-599266694-r4" x="1464" y="239.6" textLength="12.2" clip-path="url(#terminal-599266694-line-9)">
</text><text class="terminal-599266694-r1" x="0" y="264" textLength="12.2" clip-path="url(#terminal-599266694-line-10)">█</text><text class="terminal-599266694-r1" x="719.8" y="264" textLength="12.2" clip-path="url(#terminal-599266694-line-10)">█</text><text class="terminal-599266694-r4" x="1464" y="264" textLength="12.2" clip-path="url(#terminal-599266694-line-10)">
</text><text class="terminal-599266694-r1" x="0" y="288.4" textLength="12.2" clip-path="url(#terminal-599266694-line-11)">█</text><text class="terminal-599266694-r11" x="158.6" y="288.4" textLength="195.2" clip-path="url(#terminal-599266694-line-11)">▔▔▔▔▔▔▔▔▔▔▔▔▔▔▔▔</text><text class="terminal-599266694-r12" x="366" y="288.4" textLength="195.2" clip-path="url(#terminal-599266694-line-11)">▔▔▔▔▔▔▔▔▔▔▔▔▔▔▔▔</text><text class="terminal-599266694-r1" x="719.8" y="288.4" textLength="12.2" clip-path="url(#terminal-599266694-line-11)">█</text><text class="terminal-599266694-r4" x="1464" y="288.4" textLength="12.2" clip-path="url(#terminal-599266694-line-11)">
</text><text class="terminal-599266694-r1" x="0" y="312.8" textLength="12.2" clip-path="url(#terminal-599266694-line-12)">█</text><text class="terminal-599266694-r13" x="219.6" y="312.8" textLength="61" clip-path="url(#terminal-599266694-line-12)">&#160;Add&#160;</text><text class="terminal-599266694-r5" x="414.8" y="312.8" textLength="97.6" clip-path="url(#terminal-599266694-line-12)">&#160;Cancel&#160;</text><text class="terminal-599266694-r1" x="719.8" y="312.8" textLength="12.2" clip-path="url(#terminal-599266694-line-12)">█</text><text class="terminal-599266694-r4" x="1464" y="312.8" textLength="12.2" clip-path="url(#terminal-599266694-line-12)">
</text><text class="terminal-599266694-r1" x="0" y="337.2" textLength="12.2" clip-path="url(#terminal-599266694-line-13)">█</text><text class="terminal-599266694-r14" x="158.6" y="337.2" textLength="195.2" clip-path="url(#terminal-599266694-line-13)">▁▁▁▁▁▁▁▁▁▁▁▁▁▁▁▁</text><text class="terminal-599266694-r15" x="366" y="337.2" textLength="195.2" clip-path="url(#terminal-599266694-line-13)">▁▁▁▁▁▁▁▁▁▁▁▁▁▁▁▁</text><text class="terminal-599266694-r1" x="719.8" y="337.2" textLength="12.2" clip-path="url(#terminal-599266694-line-13)">█</text><text class="terminal-599266694-r4" x="1464" y="337.2" textLength="12.2" clip-path="url(#terminal-599266694-line-13)">
</text><text class="terminal-599266694-r1" x="0" y="361.6" textLength="12.2" clip-path="url(#terminal-599266694-line-14)">█</text><text class="terminal-599266694-r1" x="719.8" y="361.6" textLength="12.2" clip-path="url(#terminal-599266694-line-14)">█</text><text class="terminal-599266694-r4" x="1464" y="361.6" textLength="12.2" clip-path="url(#terminal-599266694-line-14)">
</text><text class="terminal-599266694-r1" x="0" y="386" textLength="12.2" clip-path="url(#terminal-599266694-line-15)">█</text><text class="terminal-599266694-r1" x="12.2" y="386" textLength="707.6" clip-path="url(#terminal-599266694-line-15)">▄▄▄▄▄▄▄▄▄▄▄▄▄▄▄▄▄▄▄▄▄▄▄▄▄▄▄▄▄▄▄▄▄▄▄▄▄▄▄▄▄▄▄▄▄▄▄▄▄▄▄▄▄▄▄▄▄▄</text><text class="terminal-599266694-r1" x="719.8" y="386" textLength="12.2" clip-path="url(#terminal-599266694-line-15)">█</text><text class="terminal-599266694-r4" x="1464" y="386" textLength="12.2" clip-path="url(#terminal-599266694-line-15)">
</text><text class="terminal-599266694-r4" x="1464" y="410.4" textLength="12.2" clip-path="url(#terminal-599266694-line-16)">
</text><text class="terminal-599266694-r4" x="1464" y="434.8" textLength="12.2" clip-path="url(#terminal-599266694-line-17)">
</text><text class="terminal-599266694-r4" x="1464" y="459.2" textLength="12.2" clip-path="url(#terminal-599266694-line-18)">
</text><text class="terminal-599266694-r4" x="1464" y="483.6" textLength="12.2" clip-path="url(#terminal-599266694-line-19)">
</text><text class="terminal-599266694-r4" x="1464" y="508" textLength="12.2" clip-path="url(#terminal-599266694-line-20)">
</text><text class="terminal-599266694-r4" x="1464" y="532.4" textLength="12.2" clip-path="url(#terminal-599266694-line-21)">
</text><text class="terminal-599266694-r4" x="1464" y="556.8" textLength="12.2" clip-path="url(#terminal-599266694-line-22)">
</text><text class="terminal-599266694-r4" x="1464" y="581.2" textLength="12.2" clip-path="url(#terminal-599266694-line-23)">
</text><text class="terminal-599266694-r4" x="1464" y="605.6" textLength="12.2" clip-path="url(#terminal-599266694-line-24)">
</text><text class="terminal-599266694-r4" x="1464" y="630" textLength="12.2" clip-path="url(#terminal-599266694-line-25)">
</text><text class="terminal-599266694-r4" x="1464" y="654.4" textLength="12.2" clip-path="url(#terminal-599266694-line-26)">
</text><text class="terminal-599266694-r4" x="1464" y="678.8" textLength="12.2" clip-path="url(#terminal-599266694-line-27)">
</text><text class="terminal-599266694-r16" x="24.4" y="703.2" textLength="573.4" clip-path="url(#terminal-599266694-line-28)">A=Add&#160;&#160;P=Pause/Resume&#160;&#160;S=Stop&#160;&#160;D=Remove&#160;&#160;Q=Quit</text><text class="terminal-599266694-r4" x="1464" y="703.2" textLength="12.2" clip-path="url(#terminal-599266694-line-28)">
</text><text class="terminal-599266694-r17" x="0" y="727.6" textLength="36.6" clip-path="url(#terminal-599266694-line-29)">&#160;a&#160;</text><text class="terminal-599266694-r2" x="36.6" y="727.6" textLength="48.8" clip-path="url(#terminal-599266694-line-29)">Add&#160;</text><text class="terminal-599266694-r17" x="85.4" y="727.6" textLength="36.6" clip-path="url(#terminal-599266694-line-29)">&#160;p&#160;</text><text class="terminal-599266694-r2" x="122" y="727.6" textLength="158.6" clip-path="url(#terminal-599266694-line-29)">Pause/Resume&#160;</text><text class="terminal-599266694-r17" x="280.6" y="727.6" textLength="36.6" clip-path="url(#terminal-599266694-line-29)">&#160;s&#160;</text><text class="terminal-599266694-r2" x="317.2" y="727.6" textLength="61" clip-path="url(#terminal-599266694-line-29)">Stop&#160;</text><text class="terminal-599266694-r17" x="378.2" y="727.6" textLength="36.6" clip-path="url(#terminal-599266694-line-29)">&#160;d&#160;</text><text class="terminal-599266694-r2" x="414.8" y="727.6" textLength="85.4" clip-path="url(#terminal-599266694-line-29)">Remove&#160;</text><text class="terminal-599266694-r17" x="500.2" y="727.6" textLength="36.6" clip-path="url(#terminal-599266694-line-29)">&#160;q&#160;</text><text class="terminal-599266694-r2" x="536.8" y="727.6" textLength="61" clip-path="url(#terminal-599266694-line-29)">Quit&#160;</text><text class="terminal-599266694-r18" x="1317.6" y="727.6" textLength="12.2" clip-path="url(#terminal-599266694-line-29)">▏</text><text class="terminal-599266694-r17" x="1329.8" y="727.6" textLength="24.4" clip-path="url(#terminal-599266694-line-29)">^p</text><text class="terminal-599266694-r2" x="1354.2" y="727.6" textLength="97.6" clip-path="url(#terminal-599266694-line-29)">&#160;palette</text>
    </g>
    </g>
</svg>
